# 3ds Max Wavefront OBJ Exporter v0.97b - (c)2007 guruware
# File Created: 24.02.2017 06:08:51

mtllib plate_pressure.mtl

#
# object di_
#

v  1.980450034142 -0.040300000459 2.011749982834
v  1.980450034142 0.106499999762 -2.011749982834
v  1.980450034142 0.106499999762 2.011749982834
v  1.980450034142 -0.040300000459 -2.011749982834
v  -1.973150014877 0.106499999762 -2.011749982834
v  -1.973150014877 -0.040300000459 -2.011749982834
v  -1.973150014877 0.106499999762 2.011749982834
v  -1.973150014877 -0.040300000459 2.011749982834
v  -1.728350043297 0.106499999762 1.727349996567
v  1.735649943352 0.106499999762 1.727349996567
v  1.735649943352 0.106499999762 -1.727349996567
v  -1.728350043297 0.106499999762 -1.727349996567
v  -1.728350043297 -0.008000000380 1.727349996567
v  1.735649943352 -0.008000000380 1.727349996567
v  1.735649943352 -0.008000000380 -1.727349996567
v  -1.728350043297 -0.008000000380 -1.727349996567
# 16 vertices

vn 1.000000000000 0.000000000000 -0.000000000000
vn 0.000000000000 0.000000000000 -1.000000000000
vn -1.000000000000 0.000000000000 -0.000000000000
vn 0.000000000000 0.000000000000 1.000000000000
vn 0.000000000000 1.000000000000 -0.000000000000
# 5 vertex normals

vt 0.004199999850 -0.983299970627 0.000000000000
vt 0.623499989510 -0.924499988556 0.000000000000
vt 0.044300001115 -0.924499988556 0.000000000000
vt 0.663600027561 -0.983299970627 0.000000000000
vt 0.623499989510 -0.217099994421 0.000000000000
vt 0.663600027561 -0.158299997449 0.000000000000
vt 0.044300001115 -0.217099994421 0.000000000000
vt 0.004199999850 -0.158299997449 0.000000000000
vt 0.085199996829 -0.269600003958 0.000000000000
vt 0.085199996829 -0.871900022030 0.000000000000
vt 0.582599997520 -0.871900022030 0.000000000000
vt 0.582599997520 -0.269600003958 0.000000000000
vt 0.035700000823 0.802699983120 0.000000000000
vt 0.011199999601 0.061999998987 0.000000000000
vt 0.035700000823 0.061999998987 0.000000000000
vt 0.011199999601 0.802699983120 0.000000000000
vt 0.012699999847 0.061999998987 0.000000000000
vt 0.037200000137 0.800800025463 0.000000000000
vt 0.012699999847 0.800800025463 0.000000000000
vt 0.037200000137 0.061999998987 0.000000000000
vt 0.037700001150 0.802699983120 0.000000000000
vt 0.013199999928 0.061999998987 0.000000000000
vt 0.037700001150 0.061999998987 0.000000000000
vt 0.013199999928 0.802699983120 0.000000000000
vt 0.039099998772 0.800800025463 0.000000000000
vt 0.014600000344 0.061999998987 0.000000000000
vt 0.039099998772 0.061999998987 0.000000000000
vt 0.014600000344 0.800800025463 0.000000000000
# 28 texture coords

g di_
usemtl pressure_plate
s 1
f 1/1/1 2/2/1 3/3/1 
f 4/4/1 2/2/1 1/1/1 
s 2
f 4/4/2 5/5/2 2/2/2 
f 6/6/2 5/5/2 4/4/2 
s 1
f 6/6/3 7/7/3 5/5/3 
f 8/8/3 7/7/3 6/6/3 
s 2
f 8/8/4 3/3/4 7/7/4 
f 1/1/4 3/3/4 8/8/4 
s 4
f 3/3/5 9/9/5 7/7/5 
f 10/10/5 9/9/5 3/3/5 
f 2/2/5 10/10/5 3/3/5 
f 11/11/5 10/10/5 2/2/5 
f 5/5/5 11/11/5 2/2/5 
f 12/12/5 11/11/5 5/5/5 
f 7/7/5 12/12/5 5/5/5 
f 9/9/5 12/12/5 7/7/5 
s 1
f 10/13/2 13/14/2 9/15/2 
f 14/16/2 13/14/2 10/13/2 
s 2
f 11/17/3 14/18/3 10/19/3 
f 15/20/3 14/18/3 11/17/3 
s 1
f 12/21/4 15/22/4 11/23/4 
f 16/24/4 15/22/4 12/21/4 
s 2
f 9/25/1 16/26/1 12/27/1 
f 13/28/1 16/26/1 9/25/1 
# 0 polygons - 24 triangles

#
# object di_button
#

v  1.529850006104 0.282000005245 1.522050023079
v  -1.522549986839 0.282000005245 -1.522050023079
v  -1.522549986839 0.262199997902 1.522050023079
v  1.529850006104 0.282000005245 -1.522050023079
v  1.735649943352 0.106499999762 1.727349996567
v  -1.728350043297 0.106499999762 1.727349996567
v  1.735649943352 0.106499999762 -1.727349996567
v  -1.728350043297 0.106499999762 -1.727349996567
v  1.735649943352 -0.136899992824 1.727349996567
v  -1.728350043297 -0.136899992824 1.727349996567
v  1.735649943352 -0.136899992824 -1.727349996567
v  -1.728350043297 -0.136899992824 -1.727349996567
# 12 vertices

vn 0.266630262136 0.924667060375 0.271843880415
vn -0.268955737352 0.924887418747 -0.268786519766
vn -0.246612697840 0.935949683189 0.251357108355
vn 0.269121408463 0.924565970898 -0.269724845886
vn 0.642628014088 0.415985345840 0.643417000771
vn -0.637530744076 0.431339085102 0.638358235359
vn 0.643285453320 0.415337502956 -0.643178582191
vn -0.643285453320 0.415337502956 -0.643178522587
vn 0.707106769085 0.000000000000 0.707106769085
vn -0.707106828690 0.000000000000 0.707106709480
vn 0.707106828690 0.000000000000 -0.707106709480
vn -0.707106769085 0.000000000000 -0.707106769085
# 12 vertex normals

vt 0.134499996901 -0.819500029087 0.000000000000
vt 0.530499994755 -0.319499999285 0.000000000000
vt 0.134499996901 -0.319499999285 0.000000000000
vt 0.530499994755 -0.819500029087 0.000000000000
vt 0.088299997151 -0.871500015259 0.000000000000
vt 0.088299997151 -0.277200013399 0.000000000000
vt 0.576600015163 -0.871500015259 0.000000000000
vt 0.576600015163 -0.277200013399 0.000000000000
vt 0.527400016785 0.675999999046 0.000000000000
vt 0.144199997187 0.714399993420 0.000000000000
vt 0.144199997187 0.675999999046 0.000000000000
vt 0.527400016785 0.714399993420 0.000000000000
vt 0.526300013065 0.675800025463 0.000000000000
vt 0.144199997187 0.714100003242 0.000000000000
vt 0.144199997187 0.675800025463 0.000000000000
vt 0.526300013065 0.714200019836 0.000000000000
vt 0.527400016785 0.676599979401 0.000000000000
vt 0.144199997187 0.714999973774 0.000000000000
vt 0.144199997187 0.676599979401 0.000000000000
vt 0.527400016785 0.714999973774 0.000000000000
vt 0.144199997187 0.714800000191 0.000000000000
vt 0.526300013065 0.676500022411 0.000000000000
vt 0.526300013065 0.714900016785 0.000000000000
vt 0.144199997187 0.676500022411 0.000000000000
# 24 texture coords

g di_button
usemtl pressure_plate
s 1
f 17/29/6 18/30/7 19/31/8 
f 20/32/9 18/30/7 17/29/6 
f 21/33/10 19/31/8 22/34/11 
f 17/29/6 19/31/8 21/33/10 
f 23/35/12 17/29/6 21/33/10 
f 20/32/9 17/29/6 23/35/12 
f 24/36/13 20/32/9 23/35/12 
f 18/30/7 20/32/9 24/36/13 
f 22/34/11 18/30/7 24/36/13 
f 19/31/8 18/30/7 22/34/11 
f 22/37/11 25/38/14 21/39/10 
f 26/40/15 25/38/14 22/37/11 
f 21/41/10 27/42/16 23/43/12 
f 25/44/14 27/42/16 21/41/10 
f 23/45/12 28/46/17 24/47/13 
f 27/48/16 28/46/17 23/45/12 
f 24/49/13 26/50/15 22/51/11 
f 28/52/17 26/50/15 24/49/13 
# 0 polygons - 18 triangles

